<?xml version="1.0" encoding="UTF-8"?>
<svg viewBox="1413 864 195 237" xmlns="http://www.w3.org/2000/svg" role="img" aria-label="Hanut">
    <radialGradient id="rg1" cx="1510.878067" cy="1159.0375" r="285.453627" fx="1510.878067" fy="1159.0375" gradientUnits="userSpaceOnUse">
        <stop offset="0.2667" stop-color="#0da773"/>
        <stop offset="0.4" stop-color="#12a775"/>
        <stop offset="0.6667" stop-color="#10a874"/>
        <stop offset="1" stop-color="#18a475"/>
    </radialGradient>
    <path fill="url(#rg1)" fill-rule="evenodd" d="M 1503.737183 879.755005 C 1500.717651 880.277466 1495.854126 881.664917 1493.092163 882.79248 C 1488.912231 884.497437 1483.14856 888.4375 1478.907349 892.487427 C 1477.244629 894.074951 1475.127808 896.33252 1474.207153 897.5 C 1470.736206 901.897461 1468.900024 905.10498 1466.836792 910.375 C 1465.859985 912.867432 1464.860229 916.694946 1464.480225 919.375 C 1464.345093 920.337524 1464.156372 924.444946 1464.064575 928.5 C 1463.970215 932.554932 1463.789185 935.987427 1463.659058 936.122437 C 1463.516235 936.27002 1460.761963 936.392456 1456.786011 936.42749 C 1453.136475 936.45752 1449.469116 936.60498 1448.637817 936.752441 C 1446.883179 937.064941 1444.4552 937.924927 1442.200806 939.032471 C 1441.331055 939.459961 1439.872314 940.325012 1438.961914 940.952515 C 1438.048828 941.580017 1436.460083 942.890015 1435.427124 943.859985 C 1433.394531 945.77002 1431.754761 947.877502 1430.71167 949.914978 C 1430.346924 950.625 1429.816528 952.030029 1429.52832 953.039978 C 1429.008057 954.862488 1429.005493 955.234985 1429.000366 1006 C 1428.995239 1051.462524 1429.038574 1057.33252 1429.393066 1059 C 1429.612427 1060.030029 1429.977173 1061.4375 1430.204102 1062.125 C 1430.431152 1062.8125 1431.290527 1064.724976 1432.114258 1066.375 C 1432.989014 1068.130005 1434.440186 1070.464966 1435.605713 1072 C 1436.702271 1073.445068 1438.686401 1075.637451 1440.015137 1076.875 C 1441.343872 1078.112549 1443.30249 1079.714966 1444.371094 1080.435059 C 1445.439697 1081.155029 1447.500366 1082.307495 1448.951416 1082.98999 C 1450.402588 1083.675049 1452.621338 1084.525024 1453.883789 1084.882568 C 1455.146118 1085.237549 1457.385376 1085.6875 1458.856812 1085.880005 C 1460.657349 1086.11499 1465.372925 1086.272461 1473.266113 1086.357544 C 1479.718384 1086.42749 1502.337036 1086.5 1523.530151 1086.515015 C 1558.239868 1086.54248 1562.284668 1086.502441 1564.294312 1086.13501 C 1566.620117 1085.70752 1570.251831 1084.597534 1572.460449 1083.640015 C 1574.23291 1082.872559 1577.724243 1080.69751 1579.869019 1079.030029 C 1580.850952 1078.265015 1582.480591 1076.817505 1583.487915 1075.810059 C 1585.528198 1073.772461 1589.057861 1068.839966 1590.049927 1066.64502 C 1591.052124 1064.425049 1592.215088 1060.662476 1592.510864 1058.67749 C 1592.658813 1057.6875 1592.796509 1052.544922 1592.817017 1047.25 C 1592.844971 1039.469971 1592.878174 1038.607422 1592.990356 1042.75 C 1593.066895 1045.570068 1593.112793 1027.512451 1593.092407 1002.625 C 1593.066895 970.205017 1592.975098 956.984985 1592.771118 956 C 1592.108032 952.82251 1590.876221 950.109985 1588.912476 947.5 C 1588.239136 946.607483 1586.790649 945.017517 1585.691406 943.972534 C 1583.702148 942.077515 1581.276855 940.382507 1578.846436 939.1875 C 1578.14502 938.842529 1576.252686 938.142456 1574.638306 937.630005 C 1571.305054 936.57251 1568.818481 936.272461 1563.256348 936.26001 C 1560.693237 936.252441 1559.578735 936.160034 1559.392578 935.9375 C 1559.249756 935.765015 1559.002441 932.924927 1558.844238 929.625 C 1558.686157 926.324951 1558.436279 922.554932 1558.290894 921.25 C 1557.668579 915.684937 1555.906372 909.91748 1553.343262 905.05249 C 1552.422607 903.304932 1550.900146 900.807495 1549.958984 899.5 C 1547.936646 896.689941 1542.203491 890.952515 1539.349731 888.88501 C 1538.247925 888.084961 1536.067505 886.702515 1534.50415 885.8125 C 1531.476929 884.087524 1527.115845 882.227417 1523.292969 881.030029 C 1522.005127 880.627441 1519.533813 880.0625 1517.797119 879.775024 C 1515.435425 879.382446 1513.60437 879.257446 1510.528687 879.272461 C 1507.738647 879.285034 1505.555542 879.442505 1503.739746 879.757446 Z M 1516.48877 892.537476 C 1518.243408 892.8125 1520.707031 893.375 1521.96936 893.785034 C 1523.229248 894.194946 1525.478638 895.152466 1526.968018 895.910034 C 1528.457397 896.66748 1530.650635 898.007446 1531.844116 898.88501 C 1533.03772 899.762451 1534.95813 901.414917 1536.11084 902.554932 C 1537.26355 903.694946 1538.857544 905.58252 1539.650635 906.752441 C 1540.443848 907.922485 1541.632202 909.924927 1542.292847 911.204956 C 1544.200439 914.910034 1545.207764 918.304932 1545.812256 923.084961 C 1545.962646 924.275024 1546.143799 927.57251 1546.210083 930.410034 C 1546.296753 934.057495 1546.248291 935.669922 1546.044312 935.910034 C 1545.802002 936.19751 1540.170898 936.252441 1511.388184 936.252441 C 1484.204346 936.252441 1476.966553 936.1875 1476.757446 935.939941 C 1476.612061 935.767456 1476.413208 933.994995 1476.316284 932.002441 C 1476.11731 927.952515 1476.428467 923.992432 1477.234375 920.344971 C 1477.935669 917.172485 1479.090942 913.780029 1480.38147 911.10498 C 1480.983398 909.85498 1482.09021 907.942505 1482.837402 906.85498 C 1484.280884 904.757446 1486.887329 901.914917 1489.190186 899.92749 C 1492.03894 897.469971 1495.509888 895.579956 1500.039307 894.017456 C 1504.005005 892.650024 1509.630981 891.67749 1512.153198 891.922485 C 1512.783081 891.984985 1514.734131 892.26001 1516.48877 892.535034 Z M 1565.199707 1002.392517 C 1566.064209 1002.825012 1567.596924 1004.4375 1568.132568 1005.482483 C 1568.729248 1006.642517 1568.537964 1008.272522 1567.563843 1010.309998 C 1566.714478 1012.089966 1564.449829 1015.5 1562.042358 1018.627502 C 1561.195679 1019.727478 1559.234497 1021.86499 1557.686523 1023.377502 C 1556.138428 1024.890015 1553.549805 1027.130005 1551.93811 1028.357422 C 1550.32373 1029.58252 1547.628052 1031.472534 1545.944824 1032.557495 C 1544.261597 1033.642578 1541.451172 1035.23999 1539.696533 1036.107422 C 1536.682129 1037.599976 1532.165527 1039.224976 1528.47522 1040.140015 C 1525.514282 1040.875 1519.763306 1041.744995 1515.978638 1042.030029 C 1513.918091 1042.185059 1510.982666 1042.234985 1509.3479 1042.14502 C 1504.923096 1041.897461 1498.983398 1041.089966 1495.367065 1040.247559 C 1493.589478 1039.83252 1491.044312 1039.142578 1489.710449 1038.712524 C 1488.379272 1038.282471 1485.566284 1037.11499 1483.46228 1036.117432 C 1479.59082 1034.282471 1473.551758 1030.535034 1470.200684 1027.887451 C 1467.657959 1025.880005 1463.577515 1021.94751 1461.754028 1019.755005 C 1459.805542 1017.410034 1457.150635 1013.452515 1455.880615 1011 C 1455.120605 1009.535034 1454.88855 1008.777466 1454.817139 1007.505005 C 1454.730469 1006.002502 1454.786499 1005.787476 1455.577148 1004.640015 C 1456.17395 1003.772522 1456.842041 1003.190002 1457.798462 1002.702515 C 1458.754883 1002.214966 1459.54541 1002.005005 1460.422729 1002.005005 C 1461.157227 1002.005005 1462.07019 1002.202515 1462.626221 1002.482483 C 1463.146484 1002.744995 1463.878418 1003.280029 1464.250732 1003.669983 C 1464.623047 1004.059998 1465.727417 1005.5625 1466.704102 1007.005005 C 1467.680908 1008.450012 1469.040283 1010.375 1469.723755 1011.287476 C 1471.932251 1014.22998 1474.990112 1017.507507 1477.343994 1019.450012 C 1478.606445 1020.492493 1480.60083 1021.960022 1481.776489 1022.712524 C 1482.952148 1023.464966 1484.959229 1024.599976 1486.239502 1025.234985 C 1489.511597 1026.86499 1494.239868 1028.632568 1497.23645 1029.352539 C 1498.63916 1029.6875 1501.452148 1030.217529 1503.484741 1030.530029 C 1506.499146 1030.992432 1508.266602 1031.099976 1513.04834 1031.112549 C 1519.271118 1031.130005 1520.171387 1031.025024 1526.128906 1029.589966 C 1528.952148 1028.910034 1533.093872 1027.372559 1536.146484 1025.875 C 1538.85498 1024.544922 1544.011719 1021.140015 1546.839966 1018.815002 C 1548.173828 1017.719971 1550.165649 1015.82251 1551.269897 1014.599976 C 1553.475952 1012.157471 1554.942383 1010.117493 1557.122803 1006.474976 C 1558.591797 1004.02002 1560.142456 1002.362488 1561.18042 1002.142517 C 1562.9375 1001.767517 1564.095337 1001.839966 1565.204712 1002.39502 Z"/>
</svg>
