<svg viewBox="-56 0 810 260" xmlns="http://www.w3.org/2000/svg" role="img" aria-label="Hanut">
    <g transform="translate(-1048, -915)">
    <!-- Icon -->
    <path fill="#FFFFFF" fill-rule="evenodd" d="M 1100.737183 955.755005 C 1097.717651 956.277466 1092.854126 957.664978 1090.092163 958.79248 C 1085.912231 960.497498 1080.14856 964.4375 1075.907349 968.487488 C 1074.244629 970.075012 1072.127808 972.33252 1071.207153 973.5 C 1067.736206 977.897522 1065.900024 981.10498 1063.836792 986.375 C 1062.859985 988.867493 1061.860229 992.695007 1061.480225 995.375 C 1061.345093 996.337524 1061.156372 1000.445007 1061.064575 1004.5 C 1060.970215 1008.554993 1060.789185 1011.987488 1060.659058 1012.122498 C 1060.516235 1012.27002 1057.761963 1012.392517 1053.786011 1012.42749 C 1050.136475 1012.45752 1046.469116 1012.60498 1045.637817 1012.752502 C 1043.883179 1013.065002 1041.4552 1013.924988 1039.200806 1015.032471 C 1038.331055 1015.460022 1036.872314 1016.325012 1035.961914 1016.952515 C 1035.048828 1017.580017 1033.460083 1018.890015 1032.427124 1019.859985 C 1030.394531 1021.77002 1028.754761 1023.877502 1027.71167 1025.915039 C 1027.346924 1026.625 1026.816528 1028.030029 1026.52832 1029.040039 C 1026.008057 1030.862549 1026.005493 1031.234985 1026.000366 1082 C 1025.995239 1127.462524 1026.038574 1133.33252 1026.393066 1135 C 1026.612427 1136.030029 1026.977173 1137.4375 1027.204102 1138.125 C 1027.431152 1138.8125 1028.290527 1140.724976 1029.114258 1142.375 C 1029.989014 1144.130005 1031.440186 1146.464966 1032.605713 1148 C 1033.702271 1149.445068 1035.686401 1151.637451 1037.015137 1152.875 C 1038.343872 1154.112549 1040.30249 1155.714966 1041.371094 1156.435059 C 1042.439697 1157.155029 1044.500366 1158.307495 1045.951416 1158.98999 C 1047.402588 1159.675049 1049.621338 1160.525024 1050.883789 1160.882568 C 1052.146118 1161.237549 1054.385376 1161.6875 1055.856812 1161.880005 C 1057.657349 1162.11499 1062.372925 1162.272461 1070.266113 1162.357544 C 1076.718384 1162.42749 1099.337036 1162.5 1120.530151 1162.515015 C 1155.239868 1162.54248 1159.284668 1162.502441 1161.294312 1162.13501 C 1163.620117 1161.70752 1167.251831 1160.597534 1169.460449 1159.640015 C 1171.23291 1158.872559 1174.724243 1156.69751 1176.869019 1155.030029 C 1177.850952 1154.265015 1179.480591 1152.817505 1180.487915 1151.810059 C 1182.528198 1149.772461 1186.057861 1144.839966 1187.049927 1142.64502 C 1188.052124 1140.425049 1189.215088 1136.662476 1189.510864 1134.67749 C 1189.658813 1133.6875 1189.796509 1128.544922 1189.817017 1123.25 C 1189.844971 1115.469971 1189.878174 1114.607422 1189.990356 1118.75 C 1190.066895 1121.570068 1190.112793 1103.512451 1190.092407 1078.625 C 1190.066895 1046.205078 1189.975098 1032.984985 1189.771118 1032 C 1189.108032 1028.82251 1187.876221 1026.109985 1185.912476 1023.5 C 1185.239136 1022.607483 1183.790649 1021.017517 1182.691406 1019.972534 C 1180.702148 1018.077515 1178.276855 1016.382507 1175.846436 1015.1875 C 1175.14502 1014.842529 1173.252686 1014.142517 1171.638306 1013.630005 C 1168.305054 1012.57251 1165.818481 1012.272522 1160.256348 1012.26001 C 1157.693237 1012.252502 1156.578735 1012.160034 1156.392578 1011.9375 C 1156.249756 1011.767517 1156.002441 1008.924988 1155.844238 1005.625 C 1155.686157 1002.325012 1155.436279 998.554993 1155.290894 997.25 C 1154.668579 991.684998 1152.906372 985.91748 1150.343262 981.05249 C 1149.422607 979.304993 1147.900146 976.807495 1146.958984 975.5 C 1144.936646 972.690002 1139.203491 966.952515 1136.349731 964.88501 C 1135.247925 964.085022 1133.067505 962.702515 1131.50415 961.8125 C 1128.476929 960.087524 1124.115845 958.227478 1120.292969 957.030029 C 1119.005127 956.627502 1116.533813 956.0625 1114.797119 955.775024 C 1112.435425 955.382507 1110.60437 955.257507 1107.528687 955.272522 C 1104.738647 955.285034 1102.555542 955.442505 1100.739746 955.757507 Z M 1113.48877 968.537476 C 1115.243408 968.8125 1117.707031 969.375 1118.96936 969.785034 C 1120.229248 970.195007 1122.478638 971.152466 1123.968018 971.910034 C 1125.457397 972.66748 1127.650635 974.007507 1128.844116 974.88501 C 1130.03772 975.762512 1131.95813 977.414978 1133.11084 978.554993 C 1134.26355 979.695007 1135.857544 981.58252 1136.650635 982.752502 C 1137.443848 983.922485 1138.632202 985.924988 1139.292847 987.205017 C 1141.200439 990.910034 1142.207764 994.304993 1142.812256 999.085022 C 1142.962646 1000.275024 1143.143799 1003.57251 1143.210083 1006.410034 C 1143.296753 1010.057495 1143.248291 1011.669983 1143.044312 1011.910034 C 1142.802002 1012.19751 1137.170898 1012.252502 1108.388184 1012.252502 C 1081.204346 1012.252502 1073.966553 1012.1875 1073.757446 1011.940002 C 1073.612061 1011.767517 1073.413208 1009.994995 1073.316284 1008.002502 C 1073.11731 1003.952515 1073.428467 999.992493 1074.234375 996.344971 C 1074.935669 993.172485 1076.090942 989.780029 1077.38147 987.10498 C 1077.983398 985.85498 1079.09021 983.942505 1079.837402 982.85498 C 1081.280884 980.757507 1083.887329 977.914978 1086.190186 975.92749 C 1089.03894 973.469971 1092.509888 971.580017 1097.039307 970.017517 C 1101.005005 968.650024 1106.630981 967.67749 1109.153198 967.922485 C 1109.783081 967.984985 1111.734131 968.26001 1113.48877 968.535034 Z M 1162.199707 1078.392578 C 1163.064209 1078.824951 1164.596924 1080.4375 1165.132568 1081.482422 C 1165.729248 1082.642578 1165.537964 1084.272461 1164.563843 1086.310059 C 1163.714478 1088.089966 1161.449829 1091.5 1159.042358 1094.627441 C 1158.195679 1095.727539 1156.234497 1097.86499 1154.686523 1099.377441 C 1153.138428 1100.890015 1150.549805 1103.130005 1148.93811 1104.357422 C 1147.32373 1105.58252 1144.628052 1107.472534 1142.944824 1108.557495 C 1141.261597 1109.642578 1138.451172 1111.23999 1136.696533 1112.107422 C 1133.682129 1113.599976 1129.165527 1115.224976 1125.47522 1116.140015 C 1122.514282 1116.875 1116.763306 1117.744995 1112.978638 1118.030029 C 1110.918091 1118.185059 1107.982666 1118.234985 1106.3479 1118.14502 C 1101.923096 1117.897461 1095.983398 1117.089966 1092.367065 1116.247559 C 1090.589478 1115.83252 1088.044312 1115.142578 1086.710449 1114.712524 C 1085.379272 1114.282471 1082.566284 1113.11499 1080.46228 1112.117432 C 1076.59082 1110.282471 1070.551758 1106.535034 1067.200684 1103.887451 C 1064.657959 1101.880005 1060.577515 1097.94751 1058.754028 1095.755005 C 1056.805542 1093.410034 1054.150635 1089.452515 1052.880615 1087 C 1052.120605 1085.535034 1051.88855 1084.777466 1051.817139 1083.505005 C 1051.730469 1082.002441 1051.786499 1081.787476 1052.577148 1080.640015 C 1053.17395 1079.772461 1053.842041 1079.189941 1054.798462 1078.702515 C 1055.754883 1078.214966 1056.54541 1078.005005 1057.422729 1078.005005 C 1058.157227 1078.005005 1059.07019 1078.202515 1059.626221 1078.482422 C 1060.146484 1078.744995 1060.878418 1079.280029 1061.250732 1079.669922 C 1061.623047 1080.060059 1062.727417 1081.5625 1063.704102 1083.005005 C 1064.680908 1084.449951 1066.040283 1086.375 1066.723755 1087.287476 C 1068.932251 1090.22998 1071.990112 1093.507568 1074.343994 1095.449951 C 1075.606445 1096.492432 1077.60083 1097.959961 1078.776489 1098.712524 C 1079.952148 1099.464966 1081.959229 1100.599976 1083.239502 1101.234985 C 1086.511597 1102.86499 1091.239868 1104.632568 1094.23645 1105.352539 C 1095.63916 1105.6875 1098.452148 1106.217529 1100.484741 1106.530029 C 1103.499146 1106.992432 1105.266602 1107.099976 1110.04834 1107.112549 C 1116.271118 1107.130005 1117.171387 1107.025024 1123.128906 1105.589966 C 1125.952148 1104.910034 1130.093872 1103.372559 1133.146484 1101.875 C 1135.85498 1100.544922 1141.011719 1097.140015 1143.839966 1094.814941 C 1145.173828 1093.719971 1147.165649 1091.82251 1148.269897 1090.599976 C 1150.475952 1088.157471 1151.942383 1086.117432 1154.122803 1082.474976 C 1155.591797 1080.02002 1157.142456 1078.362549 1158.18042 1078.142578 C 1159.9375 1077.767578 1161.095337 1077.839966 1162.204712 1078.39502 Z"/>
    <!-- H -->
    <path fill="#FFFFFF" fill-rule="evenodd" d="M 1337.839966 1013.72998 C 1336.857544 1013.997498 1335.507568 1014.497498 1334.839966 1014.842529 C 1332.977539 1015.804993 1330.852539 1017.609985 1329.632568 1019.267517 C 1329.027466 1020.089966 1328.27002 1021.407471 1327.952515 1022.195007 L 1327.375 1023.625 L 1327.242554 1047.125 C 1327.170044 1060.050049 1327.084961 1070.655029 1327.055054 1070.692505 C 1326.925049 1070.852539 1325.45752 1070.339966 1323.25 1069.36499 C 1321.945068 1068.787476 1320.055054 1068.02002 1319.05249 1067.660034 C 1316.660034 1066.800049 1312.872559 1065.857422 1310.362549 1065.497559 C 1309.122559 1065.320068 1306.19751 1065.247559 1302.737549 1065.307495 C 1298.075073 1065.390015 1296.680054 1065.502441 1294.5 1065.977539 C 1291.27002 1066.679932 1287.077515 1068.012451 1284.22998 1069.237549 C 1281.724976 1070.314941 1277.492554 1073.02002 1275.657471 1074.717529 C 1274.952515 1075.369995 1274.0625 1076.099976 1273.682495 1076.337524 C 1273.002563 1076.762451 1272.987549 1076.76001 1272.747559 1076.130005 C 1272.597534 1075.732422 1272.497559 1066.810059 1272.484985 1052.685059 C 1272.474976 1040.142578 1272.36499 1028.584961 1272.23999 1027.002441 C 1272.107544 1025.33252 1271.800049 1023.505005 1271.505005 1022.647522 C 1271.224976 1021.835022 1270.660034 1020.642517 1270.244995 1020 C 1269.83252 1019.357483 1268.775024 1018.140015 1267.89502 1017.29248 C 1266.882568 1016.320007 1265.637573 1015.442505 1264.51001 1014.900024 C 1263.527466 1014.429993 1261.915039 1013.907471 1260.925049 1013.73999 C 1258.415039 1013.317505 1254.94751 1013.580017 1252.6875 1014.367493 C 1250.66748 1015.070007 1247.920044 1016.837524 1246.717529 1018.205017 C 1245.57251 1019.51001 1244.57251 1021.157471 1244.002563 1022.679993 C 1243.512573 1023.987488 1243.505005 1024.777466 1243.494995 1081.317505 C 1243.487549 1116.685059 1243.575073 1138.932495 1243.719971 1139.425049 C 1244.130005 1140.80249 1245.772461 1143.70752 1246.805054 1144.882568 C 1247.349976 1145.502441 1248.547485 1146.449951 1249.462524 1146.987549 C 1250.377563 1147.525024 1251.859985 1148.1875 1252.755005 1148.45752 C 1253.650024 1148.72998 1255.227539 1149.092529 1256.26001 1149.267456 C 1257.732544 1149.515015 1258.557495 1149.52002 1260.099976 1149.290039 C 1261.182495 1149.130005 1262.72998 1148.72998 1263.540039 1148.402466 C 1267.252563 1146.902466 1269.952515 1144.554932 1271.452515 1141.522461 L 1272.375 1139.657471 L 1272.535034 1128.892456 C 1272.712524 1116.830078 1272.89502 1115.054932 1274.420044 1110.377441 C 1275.252563 1107.824951 1277.22998 1103.820068 1278.61499 1101.882568 C 1280.175049 1099.69751 1283.915039 1096.015015 1285.905029 1094.69751 C 1287.80249 1093.442505 1290.997559 1091.790039 1293.050049 1091 C 1293.780029 1090.719971 1295.502563 1090.185059 1296.877563 1089.810059 C 1299.232544 1089.169922 1299.6875 1089.130005 1304.752563 1089.127441 C 1309.900024 1089.125 1310.224976 1089.155029 1312.432495 1089.814941 C 1313.700073 1090.195068 1315.762573 1090.949951 1317.015015 1091.492432 C 1318.267456 1092.035034 1320.209961 1093.092529 1321.334961 1093.839966 C 1322.459961 1094.587524 1324.030029 1095.882568 1324.827515 1096.717529 C 1325.625 1097.55249 1326.517456 1098.772461 1326.815063 1099.429932 C 1327.349976 1100.61499 1327.35498 1100.777466 1327.41748 1119.337524 C 1327.452515 1129.709961 1327.459961 1134.73999 1327.670044 1137.530029 C 1327.880005 1140.320068 1328.297485 1140.872559 1329.152466 1142.285034 C 1329.622559 1143.060059 1330.742554 1144.382568 1331.640015 1145.224976 C 1332.540039 1146.064941 1333.91748 1147.074951 1334.700073 1147.467529 C 1335.484985 1147.859985 1336.857544 1148.375 1337.75 1148.609985 C 1339.977539 1149.19751 1343.9375 1149.39502 1345.710083 1149.005005 C 1346.487549 1148.834961 1347.857544 1148.3125 1348.755005 1147.844971 C 1349.652588 1147.377441 1350.992554 1146.464966 1351.734985 1145.814941 C 1352.477539 1145.165039 1353.51001 1143.972534 1354.035034 1143.165039 C 1354.557495 1142.35498 1355.222534 1141.0625 1355.512573 1140.287476 L 1356.040039 1138.880005 L 1356.075073 1087.75 C 1356.094971 1059.627441 1356.180054 1038.64502 1356.265015 1041.119995 C 1356.36499 1043.97998 1356.405029 1041.794922 1356.375 1035.119995 C 1356.330078 1025.137451 1356.30249 1024.540039 1355.79248 1022.994995 C 1355.497559 1022.102478 1354.932495 1020.804993 1354.535034 1020.11499 C 1354.137573 1019.424988 1353.305054 1018.299988 1352.685059 1017.61499 C 1352.065063 1016.929993 1350.9375 1015.994995 1350.17749 1015.537476 C 1349.41748 1015.080017 1347.969971 1014.422485 1346.962524 1014.075012 C 1345.565063 1013.592529 1344.472534 1013.41748 1342.380005 1013.339966 C 1340.200073 1013.257507 1339.26001 1013.337524 1337.844971 1013.722534 Z"/>
    <!-- a -->
    <path fill="#FFFFFF" fill-rule="evenodd" d="M 1418 1049.132568 C 1414.862549 1049.609985 1411.085083 1050.570068 1407.525024 1051.790039 C 1405.930054 1052.337524 1403.315063 1053.442505 1401.710083 1054.244995 C 1396.577515 1056.814941 1392.190063 1060.040039 1388.392578 1064.032471 C 1386.872559 1065.630005 1385.10498 1067.869995 1383.755005 1069.907471 C 1382.555054 1071.719971 1380.835083 1074.702515 1379.930054 1076.537476 C 1379.027588 1078.372559 1377.877563 1081.054932 1377.377563 1082.497559 C 1376.877563 1083.942505 1376.1875 1086.300049 1375.844971 1087.73999 C 1375.155029 1090.647461 1374.497559 1096.205078 1374.530029 1098.882568 C 1374.560059 1101.435059 1375.205078 1107.252441 1375.777588 1110.125 C 1376.05249 1111.5 1376.675049 1113.804932 1377.160034 1115.25 C 1377.64502 1116.695068 1378.815063 1119.449951 1379.757568 1121.375 C 1380.700073 1123.300049 1382.275024 1126.112549 1383.257568 1127.625 C 1384.680054 1129.8125 1385.844971 1131.170044 1388.960083 1134.26001 C 1391.185059 1136.469971 1393.890015 1138.869995 1395.22998 1139.824951 C 1396.525024 1140.75 1398.887573 1142.165039 1400.47998 1142.969971 C 1402.07251 1143.775024 1404.38501 1144.780029 1405.622559 1145.199951 C 1406.859985 1145.622559 1408.997559 1146.247559 1410.372559 1146.594971 C 1413.692505 1147.429932 1418.619995 1148.257568 1421.247559 1148.420044 C 1422.41748 1148.492432 1424.609985 1148.435059 1426.122559 1148.290039 C 1427.63501 1148.14502 1430.3125 1147.682495 1432.07251 1147.265015 C 1435.38501 1146.477539 1438.080078 1145.469971 1441.55249 1143.724976 C 1444.05249 1142.467529 1447.17749 1140.525024 1449.015015 1139.089966 C 1449.780029 1138.492432 1450.577515 1138.002441 1450.785034 1138.002441 C 1450.994995 1138.002441 1451.277588 1138.255005 1451.412476 1138.564941 C 1452.382568 1140.767456 1453.224976 1142.199951 1454.162476 1143.242432 C 1454.76001 1143.905029 1455.810059 1144.810059 1456.497559 1145.252441 C 1457.185059 1145.695068 1458.407471 1146.26001 1459.210083 1146.51001 C 1460.015015 1146.76001 1461.527588 1147.084961 1462.570068 1147.22998 C 1465.23999 1147.602539 1467.762573 1147.23999 1470.119995 1146.152466 C 1471.237549 1145.63501 1472.525024 1144.780029 1473.330078 1144.02002 C 1474.137573 1143.257568 1475.012573 1142.08252 1475.522583 1141.077515 L 1476.372559 1139.405029 L 1476.372559 1099.642578 C 1476.372559 1066.794922 1476.3125 1059.640015 1476.030029 1058.505005 C 1475.842529 1057.747559 1475.397583 1056.587524 1475.04248 1055.925049 C 1474.6875 1055.262451 1473.70752 1054.074951 1472.862549 1053.285034 C 1471.317505 1051.839966 1469.807495 1050.967529 1467.767578 1050.342529 C 1467.097534 1050.137451 1465.465088 1050.005005 1463.607544 1050.005005 C 1461.25 1050.005005 1460.175049 1050.119995 1458.920044 1050.507568 C 1457.972534 1050.800049 1456.655029 1051.47998 1455.767578 1052.132568 C 1454.930054 1052.75 1453.762573 1053.907471 1453.175049 1054.705078 C 1452.587524 1055.502441 1451.830078 1056.797485 1451.492554 1057.580078 C 1451.155029 1058.36499 1450.772583 1059.005005 1450.64502 1059.005005 C 1450.517578 1059.005005 1449.335083 1058.304932 1448.015015 1057.449951 C 1446.695068 1056.594971 1444.467529 1055.294922 1443.0625 1054.560059 C 1439.840088 1052.875 1435.705078 1051.119995 1433.119995 1050.339966 C 1432.022583 1050.007568 1430.165039 1049.5625 1428.994995 1049.349976 C 1425.950073 1048.797485 1420.862549 1048.699951 1417.992554 1049.13501 Z M 1426.392578 1075.777466 C 1426.497559 1075.94751 1426.92749 1075.994995 1427.505005 1075.905029 C 1428.69751 1075.714966 1432.72998 1076.709961 1434.92749 1077.73999 C 1437.017578 1078.717529 1439.952515 1080.762451 1441.61499 1082.397461 C 1442.349976 1083.119995 1443.29248 1084.209961 1443.710083 1084.817505 C 1445.055054 1086.772461 1446.680054 1090.1875 1447.212524 1092.185059 C 1447.497559 1093.252441 1447.86499 1095.17749 1448.027588 1096.462524 C 1448.255005 1098.262451 1448.255005 1099.362549 1448.025024 1101.25 C 1447.862549 1102.597534 1447.44751 1104.752441 1447.10498 1106.037476 C 1446.762573 1107.32251 1446.147583 1109.094971 1445.737549 1109.974976 C 1445.327515 1110.85498 1444.5 1112.26001 1443.900024 1113.099976 C 1443.300049 1113.939941 1442.090088 1115.310059 1441.215088 1116.142578 C 1440.340088 1116.977539 1438.905029 1118.142578 1438.027588 1118.737549 C 1437.150024 1119.330078 1435.474976 1120.265015 1434.305054 1120.8125 C 1431.397583 1122.175049 1428.695068 1122.6875 1424.765015 1122.619995 C 1422.195068 1122.577515 1421.099976 1122.429932 1418.737549 1121.814941 C 1417.150024 1121.400024 1415.29248 1120.777466 1414.612549 1120.42749 C 1413.932495 1120.077515 1412.8125 1119.390015 1412.125 1118.897461 C 1410.359985 1117.632568 1407.859985 1115.119995 1406.757568 1113.502441 C 1404.857544 1110.717529 1403.619995 1107.672485 1403 1104.242432 C 1402.592529 1101.994995 1402.655029 1096.974976 1403.122559 1094.277466 C 1403.344971 1092.997559 1403.844971 1091.074951 1404.234985 1090.005005 C 1404.625 1088.935059 1405.400024 1087.280029 1405.95752 1086.324951 C 1406.515015 1085.369995 1407.79248 1083.772461 1408.797485 1082.772461 C 1409.80249 1081.775024 1411.382568 1080.452515 1412.3125 1079.834961 C 1413.23999 1079.217529 1414.910034 1078.320068 1416.02002 1077.837524 C 1418.64502 1076.699951 1422.585083 1075.69751 1423.650024 1075.897461 C 1424.130005 1075.987549 1424.647583 1075.939941 1424.91748 1075.782471 C 1425.517578 1075.432495 1426.17749 1075.432495 1426.392578 1075.777466 Z"/>
    <!-- n -->
    <path fill="#FFFFFF" fill-rule="evenodd" d="M 1543.625 1049.612549 C 1542.387573 1049.797485 1540.8125 1050.074951 1540.125 1050.232422 C 1537.347534 1050.86499 1532.5 1052.655029 1529.617554 1054.11499 C 1527.9375 1054.964966 1525.8125 1056.217529 1524.892578 1056.89502 C 1521.984985 1059.040039 1521.680054 1059.252441 1521.494995 1059.252441 C 1521.39502 1059.252441 1520.680054 1058.252441 1519.905029 1057.030029 C 1519.130005 1055.807495 1518.05249 1054.407471 1517.51001 1053.915039 C 1516.967529 1053.425049 1516.045044 1052.780029 1515.460083 1052.47998 C 1513.3125 1051.38501 1511.657471 1050.959961 1509 1050.82251 C 1506.800049 1050.70752 1506.057495 1050.772461 1504.41748 1051.222534 C 1503.342529 1051.517578 1501.880005 1052.13501 1501.16748 1052.594971 C 1499.66748 1053.564941 1498.257568 1054.900024 1497.217529 1056.33252 C 1496.815063 1056.887451 1496.295044 1057.969971 1496.0625 1058.734985 C 1495.682495 1059.987549 1495.632568 1062.369995 1495.5625 1082.625 C 1495.52002 1095 1495.460083 1112.099976 1495.42749 1120.625 C 1495.375 1135.054932 1495.405029 1136.227539 1495.83252 1137.625 C 1496.085083 1138.449951 1496.647583 1139.800049 1497.08252 1140.625 C 1497.517578 1141.449951 1498.560059 1142.814941 1499.400024 1143.655029 C 1501.27002 1145.530029 1503.82251 1146.852539 1506.58252 1147.377441 C 1509.3125 1147.89502 1512.515015 1147.852539 1514.807495 1147.265015 C 1515.844971 1147 1517.372559 1146.439941 1518.200073 1146.022461 C 1519.027588 1145.60498 1520.390015 1144.627441 1521.22998 1143.852539 C 1522.36499 1142.80249 1523.01001 1141.920044 1523.755005 1140.407471 C 1524.305054 1139.290039 1524.882568 1137.8125 1525.040039 1137.125 C 1525.23999 1136.252441 1525.352539 1128.897461 1525.415039 1112.75 C 1525.502563 1090.192505 1525.517578 1089.58252 1526.025024 1087.875 C 1526.310059 1086.912476 1526.930054 1085.390015 1527.397583 1084.492432 C 1527.867554 1083.594971 1528.682495 1082.339966 1529.20752 1081.702515 C 1530.512573 1080.122559 1532.310059 1078.602539 1533.710083 1077.892578 C 1534.349976 1077.567505 1535.88501 1076.98999 1537.122559 1076.609985 C 1538.920044 1076.054932 1539.869995 1075.915039 1541.869995 1075.905029 C 1543.757568 1075.89502 1544.875 1076.035034 1546.42749 1076.472534 C 1547.560059 1076.79248 1549.107544 1077.42749 1549.869995 1077.88501 C 1550.630005 1078.342529 1551.85498 1079.22998 1552.587524 1079.857422 C 1553.32251 1080.484985 1554.410034 1081.66748 1555.007568 1082.487549 C 1555.60498 1083.307495 1556.467529 1084.88501 1556.925049 1085.992432 C 1557.41748 1087.185059 1557.925049 1089.050049 1558.16748 1090.564941 C 1558.51001 1092.702515 1558.567505 1094.972534 1558.525024 1104.33252 C 1558.492554 1111.477539 1558.560059 1115.487549 1558.712524 1115.392578 C 1558.86499 1115.297485 1558.9375 1119.080078 1558.910034 1125.807495 C 1558.862549 1137.38501 1558.910034 1137.880005 1560.327515 1140.622559 C 1561.35498 1142.609985 1563.969971 1145.224976 1565.782471 1146.077515 C 1566.5625 1146.442505 1568.192505 1146.977539 1569.407471 1147.265015 C 1571.050049 1147.655029 1572.160034 1147.76001 1573.73999 1147.682495 C 1576.359985 1147.55249 1579.234985 1146.625 1581.42749 1145.202515 C 1582.287476 1144.64502 1583.597534 1143.532471 1584.342529 1142.72998 C 1585.085083 1141.92749 1585.982544 1140.660034 1586.335083 1139.915039 C 1586.6875 1139.170044 1587.094971 1137.787476 1587.23999 1136.842529 C 1587.41748 1135.695068 1587.472534 1127.994995 1587.407471 1113.625 C 1587.35498 1101.800049 1587.285034 1091.955078 1587.255005 1091.75 C 1587.224976 1091.544922 1587.092529 1089.97998 1586.95752 1088.277466 C 1586.82251 1086.57251 1586.487549 1084.054932 1586.212524 1082.682495 C 1585.9375 1081.310059 1585.282471 1078.877441 1584.757568 1077.277466 C 1584.232544 1075.67749 1583.22998 1073.227539 1582.530029 1071.834961 C 1579.685059 1066.162476 1575.290039 1060.775024 1570.672485 1057.294922 C 1568.690063 1055.800049 1566.045044 1054.222534 1563.857544 1053.232422 C 1560.950073 1051.915039 1556.372559 1050.477539 1553.52002 1049.987549 C 1551.95752 1049.719971 1549.594971 1049.449951 1548.27002 1049.390015 C 1546.912476 1049.327515 1544.880005 1049.425049 1543.609985 1049.61499 Z"/>
    <!-- u -->
    <path fill="#FFFFFF" fill-rule="evenodd" d="M 1678.349976 1049.955078 C 1675.32251 1050.857422 1672.61499 1052.88501 1670.787476 1055.619995 C 1670.087524 1056.66748 1669.337524 1058.109985 1669.122559 1058.824951 C 1668.780029 1059.964966 1668.734985 1062.987549 1668.747559 1083.294922 C 1668.755005 1096.20752 1668.665039 1106.525024 1668.545044 1106.599976 C 1668.425049 1106.675049 1668.257568 1107.560059 1668.172485 1108.567505 C 1668.087524 1109.574951 1667.777588 1111.182495 1667.482544 1112.137451 C 1667.1875 1113.092529 1666.60498 1114.550049 1666.190063 1115.375 C 1665.755005 1116.23999 1664.785034 1117.51001 1663.902588 1118.375 C 1663.060059 1119.199951 1661.692505 1120.234985 1660.86499 1120.672485 C 1660.037476 1121.112549 1658.465088 1121.727539 1657.369995 1122.04248 C 1655.724976 1122.515015 1654.77002 1122.61499 1651.880005 1122.619995 C 1649.340088 1122.622559 1647.85498 1122.5 1646.465088 1122.16748 C 1645.397583 1121.912476 1643.859985 1121.304932 1642.98999 1120.79248 C 1642.132568 1120.287476 1640.797485 1119.244995 1640.025024 1118.474976 C 1639.16748 1117.622559 1638.297485 1116.412476 1637.790039 1115.372559 C 1637.33252 1114.435059 1636.672485 1112.477539 1636.32251 1111.022461 L 1635.6875 1108.375 L 1635.577515 1084.875 C 1635.517578 1072.10498 1635.494995 1065.842529 1635.307495 1062.435059 C 1635.119995 1059.027466 1634.765015 1058.474976 1634.045044 1057.125 C 1633.060059 1055.277466 1630.442505 1052.782471 1628.327515 1051.67749 C 1627.337524 1051.160034 1625.660034 1050.512451 1624.599976 1050.242432 C 1622.252563 1049.642578 1618.727539 1049.592529 1616.617554 1050.127441 C 1615.797485 1050.334961 1614.340088 1050.892578 1613.377563 1051.362549 C 1612.415039 1051.83252 1611.037476 1052.76001 1610.317505 1053.419922 C 1609.597534 1054.08252 1608.607544 1055.297485 1608.119995 1056.122559 C 1607.632568 1056.94751 1607.022583 1058.35498 1606.762573 1059.247559 C 1606.32251 1060.762451 1606.285034 1062.1875 1606.200073 1080.497559 C 1606.150024 1091.29248 1606.180054 1098.997559 1606.267578 1097.622559 C 1606.357544 1096.202515 1606.42749 1098.959961 1606.430054 1103.997559 C 1606.432495 1111.01001 1606.52002 1113.377441 1606.837524 1115.275024 C 1607.060059 1116.594971 1607.6875 1119.127441 1608.232544 1120.900024 C 1608.777588 1122.672485 1609.719971 1125.195068 1610.327515 1126.502441 C 1610.935059 1127.8125 1612.190063 1130.005005 1613.112549 1131.377441 C 1614.037476 1132.75 1615.712524 1134.807495 1616.835083 1135.949951 C 1619.075073 1138.227539 1622.155029 1140.617432 1624.890015 1142.195068 C 1626.82251 1143.310059 1630.507568 1144.837524 1633.625 1145.817505 C 1636.227539 1146.63501 1639.537476 1147.334961 1643.875 1147.987549 C 1646.665039 1148.407471 1648.507568 1148.51001 1652.960083 1148.5 C 1656.032471 1148.492432 1659.349976 1148.375 1660.335083 1148.23999 C 1661.320068 1148.10498 1662.912476 1147.824951 1663.875 1147.619995 C 1664.837524 1147.415039 1666.75 1147.007568 1668.125 1146.714966 C 1669.5 1146.422485 1671.580078 1145.847534 1672.75 1145.4375 C 1673.920044 1145.027466 1676.085083 1144.092529 1677.565063 1143.35498 C 1679.045044 1142.619995 1681.25 1141.337524 1682.462524 1140.505005 C 1683.732544 1139.63501 1685.780029 1137.849976 1687.282471 1136.307495 C 1690.012573 1133.5 1692.387573 1130.20752 1693.987549 1127.01001 C 1694.507568 1125.972534 1695.224976 1124.272461 1695.580078 1123.232422 C 1695.9375 1122.195068 1696.405029 1120.337524 1696.619995 1119.107422 C 1696.835083 1117.877441 1697.127563 1115.407471 1697.267578 1113.619995 C 1697.42749 1111.597534 1697.48999 1101.172485 1697.435059 1085.994995 C 1697.357544 1064.719971 1697.297485 1061.45752 1696.955078 1060.347534 C 1696.73999 1059.647461 1696.090088 1058.16748 1695.515015 1057.060059 C 1693.705078 1053.580078 1690.675049 1051.1875 1686.6875 1050.089966 C 1685.962524 1049.890015 1684.132568 1049.675049 1682.619995 1049.612549 C 1680.4375 1049.52002 1679.555054 1049.589966 1678.344971 1049.949951 Z"/>
    <!-- t -->
    <path fill="#FFFFFF" fill-rule="evenodd" d="M 1730.125 1017.997498 C 1729.300049 1018.112488 1728.007568 1018.442505 1727.25 1018.727478 C 1726.492554 1019.012512 1725.224976 1019.757507 1724.430054 1020.382507 C 1723.63501 1021.007507 1722.48999 1022.192505 1721.882568 1023.017517 C 1721.277588 1023.839966 1720.540039 1025.157471 1720.244995 1025.945068 C 1719.640015 1027.560059 1719.340088 1028.214966 1719.20752 1033.647461 C 1719.07251 1039.080078 1719.10498 1049.285034 1719.157471 1070.002441 C 1719.212524 1091.257568 1719.232544 1101.655029 1719.42749 1107.469971 C 1719.622559 1113.285034 1719.992554 1114.515015 1720.75 1117.429932 C 1721.150024 1118.972534 1721.825073 1121.109985 1722.252563 1122.179932 C 1722.67749 1123.25 1723.599976 1125.140015 1724.300049 1126.377441 C 1726.715088 1130.64502 1728.517578 1133.070068 1731.474976 1136.030029 C 1733.070068 1137.625 1735.445068 1139.719971 1736.75 1140.682495 C 1738.055054 1141.64502 1740.137573 1143.007568 1741.375 1143.70752 C 1742.612549 1144.410034 1744.390015 1145.27002 1745.32251 1145.619995 C 1747.920044 1146.594971 1752.005005 1147.655029 1755.875 1148.36499 C 1757.800049 1148.717529 1759.655029 1149.050049 1760 1149.107544 C 1760.344971 1149.165039 1762.32251 1149.127441 1764.400024 1149.027466 C 1768.030029 1148.852539 1768.244995 1148.8125 1770.025024 1147.959961 C 1771.04248 1147.472534 1772.57251 1146.547485 1773.425049 1145.902466 C 1775.047485 1144.675049 1776.900024 1142.42749 1777.875 1140.502441 C 1778.190063 1139.880005 1778.575073 1138.902466 1778.72998 1138.329956 C 1778.88501 1137.757568 1779.015015 1136.117432 1779.02002 1134.685059 C 1779.027588 1132.662476 1778.910034 1131.722534 1778.494995 1130.47998 C 1778.200073 1129.599976 1777.717529 1128.484985 1777.425049 1128.005005 C 1776.512573 1126.507568 1774.690063 1124.732422 1773.380005 1124.067505 C 1772.690063 1123.717529 1771.5625 1123.277466 1770.875 1123.092529 C 1770.1875 1122.907471 1768.05249 1122.640015 1766.130005 1122.5 C 1764.20752 1122.359985 1761.70752 1122.025024 1760.57251 1121.755005 C 1759.4375 1121.484985 1757.859985 1120.932495 1757.067505 1120.525024 C 1756.275024 1120.117432 1754.974976 1119.267578 1754.180054 1118.63501 C 1753.38501 1118.002441 1752.217529 1116.785034 1751.58252 1115.932495 C 1750.950073 1115.077515 1750.162476 1113.777466 1749.83252 1113.044922 C 1749.002563 1111.1875 1748.317505 1108.535034 1747.982544 1105.880005 C 1747.800049 1104.422485 1747.712524 1098.967529 1747.734985 1090.390015 C 1747.755005 1083.107422 1747.83252 1077.089966 1747.905029 1077.015015 C 1747.97998 1076.939941 1752.474976 1076.912476 1757.897583 1076.952515 C 1765.915039 1077.01001 1767.97998 1076.95752 1768.967529 1076.662476 C 1769.63501 1076.464966 1770.5625 1076.109985 1771.027588 1075.872559 C 1772.36499 1075.192505 1773.92749 1073.82251 1774.785034 1072.577515 C 1775.219971 1071.94751 1775.787476 1070.744995 1776.047485 1069.910034 C 1776.420044 1068.709961 1776.525024 1067.570068 1776.54248 1064.51001 C 1776.557495 1061.689941 1776.450073 1060.157471 1776.147583 1058.890015 C 1775.91748 1057.932495 1775.390015 1056.61499 1774.972534 1055.964966 C 1774.555054 1055.314941 1773.777588 1054.387451 1773.242554 1053.905029 C 1772.70752 1053.422485 1771.840088 1052.807495 1771.315063 1052.540039 C 1770.790039 1052.272461 1769.695068 1051.929932 1768.882568 1051.780029 C 1767.982544 1051.612549 1763.680054 1051.507568 1757.837524 1051.507568 C 1748.45752 1051.507568 1748.262573 1051.497559 1747.994995 1050.997559 C 1747.815063 1050.662476 1747.680054 1046.892578 1747.597534 1040.060059 C 1747.530029 1034.324951 1747.362549 1028.95752 1747.227539 1028.132568 C 1747.090088 1027.307495 1746.650024 1025.94751 1746.244995 1025.112549 C 1745.820068 1024.232422 1744.88501 1022.960022 1744.022583 1022.089966 C 1742.450073 1020.502502 1740.037476 1019.075012 1737.842529 1018.429993 C 1736.227539 1017.955017 1732.097534 1017.727478 1730.125 1018.005005 Z"/>
    </g>
</svg>
